<svg width="4765" height="900" viewBox="0 0 4765 900" fill="none" xmlns="http://www.w3.org/2000/svg">
<path d="M32.7994 336.816L431.491 336.816L310.51 259.706L164.324 168.822L32.7994 336.816Z" fill="#F4F7FC" stroke="white" stroke-width="30" stroke-linecap="round" stroke-linejoin="round"/>
<path d="M152.414 566.468L319.601 738.866L413.485 646.338L242.005 387.403L32.7993 387.403L152.414 566.468Z" fill="#D0E2EC" stroke="white" stroke-width="30" stroke-linecap="round" stroke-linejoin="round"/>
<path d="M596.112 336.816L473.846 183.826L310.511 259.706L431.491 336.816L596.112 336.816Z" fill="#D0E2EC" stroke="white" stroke-width="30" stroke-linecap="round" stroke-linejoin="round"/>
<path d="M413.486 646.338L513.285 547.264L596.025 387.358L242.005 387.403L413.486 646.338Z" fill="#A6C8DB" stroke="white" stroke-width="30" stroke-linecap="round" stroke-linejoin="round"/>
<path d="M1060.2 243C1104.6 243 1143.4 251.6 1176.6 268.8C1210.2 285.6 1236 310 1254 342C1272.4 373.6 1281.6 410.6 1281.6 453C1281.6 495.4 1272.4 532.2 1254 563.4C1236 594.6 1210.2 618.6 1176.6 635.4C1143.4 651.8 1104.6 660 1060.2 660H924V243H1060.2ZM1060.2 604.2C1109 604.2 1146.4 591 1172.4 564.6C1198.4 538.2 1211.4 501 1211.4 453C1211.4 404.6 1198.4 366.8 1172.4 339.6C1146.4 312.4 1109 298.8 1060.2 298.8H992.4V604.2H1060.2ZM1652.39 486.6C1652.39 499 1651.59 510.2 1649.99 520.2H1397.39C1399.39 546.6 1409.19 567.8 1426.79 583.8C1444.39 599.8 1465.99 607.8 1491.59 607.8C1528.39 607.8 1554.39 592.4 1569.59 561.6H1643.39C1633.39 592 1615.19 617 1588.79 636.6C1562.79 655.8 1530.39 665.4 1491.59 665.4C1459.99 665.4 1431.59 658.4 1406.39 644.4C1381.59 630 1361.99 610 1347.59 584.4C1333.59 558.4 1326.59 528.4 1326.59 494.4C1326.59 460.4 1333.39 430.6 1346.99 405C1360.99 379 1380.39 359 1405.19 345C1430.39 331 1459.19 324 1491.59 324C1522.79 324 1550.59 330.8 1574.99 344.4C1599.39 358 1618.39 377.2 1631.99 402C1645.59 426.4 1652.39 454.6 1652.39 486.6ZM1580.99 465C1580.59 439.8 1571.59 419.6 1553.99 404.4C1536.39 389.2 1514.59 381.6 1488.59 381.6C1464.99 381.6 1444.79 389.2 1427.99 404.4C1411.19 419.2 1401.19 439.4 1397.99 465H1580.99ZM2022.7 486.6C2022.7 499 2021.9 510.2 2020.3 520.2H1767.7C1769.7 546.6 1779.5 567.8 1797.1 583.8C1814.7 599.8 1836.3 607.8 1861.9 607.8C1898.7 607.8 1924.7 592.4 1939.9 561.6H2013.7C2003.7 592 1985.5 617 1959.1 636.6C1933.1 655.8 1900.7 665.4 1861.9 665.4C1830.3 665.4 1801.9 658.4 1776.7 644.4C1751.9 630 1732.3 610 1717.9 584.4C1703.9 558.4 1696.9 528.4 1696.9 494.4C1696.9 460.4 1703.7 430.6 1717.3 405C1731.3 379 1750.7 359 1775.5 345C1800.7 331 1829.5 324 1861.9 324C1893.1 324 1920.9 330.8 1945.3 344.4C1969.7 358 1988.7 377.2 2002.3 402C2015.9 426.4 2022.7 454.6 2022.7 486.6ZM1951.3 465C1950.9 439.8 1941.9 419.6 1924.3 404.4C1906.7 389.2 1884.9 381.6 1858.9 381.6C1835.3 381.6 1815.1 389.2 1798.3 404.4C1781.5 419.2 1771.5 439.4 1768.3 465H1951.3ZM2158.42 378C2170.02 362.8 2185.82 350 2205.82 339.6C2225.82 329.2 2248.42 324 2273.62 324C2302.42 324 2328.62 331.2 2352.22 345.6C2376.22 359.6 2395.02 379.4 2408.62 405C2422.22 430.6 2429.02 460 2429.02 493.2C2429.02 526.4 2422.22 556.2 2408.62 582.6C2395.02 608.6 2376.22 629 2352.22 643.8C2328.62 658.2 2302.42 665.4 2273.62 665.4C2248.42 665.4 2226.02 660.4 2206.42 650.4C2186.82 640 2170.82 627.2 2158.42 612V817.2H2090.02V329.4H2158.42V378ZM2359.42 493.2C2359.42 470.4 2354.62 450.8 2345.02 434.4C2335.82 417.6 2323.42 405 2307.82 396.6C2292.62 387.8 2276.22 383.4 2258.62 383.4C2241.42 383.4 2225.02 387.8 2209.42 396.6C2194.22 405.4 2181.82 418.2 2172.22 435C2163.02 451.8 2158.42 471.6 2158.42 494.4C2158.42 517.2 2163.02 537.2 2172.22 554.4C2181.82 571.2 2194.22 584 2209.42 592.8C2225.02 601.6 2241.42 606 2258.62 606C2276.22 606 2292.62 601.6 2307.82 592.8C2323.42 583.6 2335.82 570.4 2345.02 553.2C2354.62 536 2359.42 516 2359.42 493.2ZM2799.66 486.6C2799.66 499 2798.86 510.2 2797.26 520.2H2544.66C2546.66 546.6 2556.46 567.8 2574.06 583.8C2591.66 599.8 2613.26 607.8 2638.86 607.8C2675.66 607.8 2701.66 592.4 2716.86 561.6H2790.66C2780.66 592 2762.46 617 2736.06 636.6C2710.06 655.8 2677.66 665.4 2638.86 665.4C2607.26 665.4 2578.86 658.4 2553.66 644.4C2528.86 630 2509.26 610 2494.86 584.4C2480.86 558.4 2473.86 528.4 2473.86 494.4C2473.86 460.4 2480.66 430.6 2494.26 405C2508.26 379 2527.66 359 2552.46 345C2577.66 331 2606.46 324 2638.86 324C2670.06 324 2697.86 330.8 2722.26 344.4C2746.66 358 2765.66 377.2 2779.26 402C2792.86 426.4 2799.66 454.6 2799.66 486.6ZM2728.26 465C2727.86 439.8 2718.86 419.6 2701.26 404.4C2683.66 389.2 2661.86 381.6 2635.86 381.6C2612.26 381.6 2592.06 389.2 2575.26 404.4C2558.46 419.2 2548.46 439.4 2545.26 465H2728.26ZM2935.37 377.4C2945.37 360.6 2958.57 347.6 2974.97 338.4C2991.77 328.8 3011.57 324 3034.37 324V394.8H3016.97C2990.17 394.8 2969.77 401.6 2955.77 415.2C2942.17 428.8 2935.37 452.4 2935.37 486V660H2866.97V329.4H2935.37V377.4ZM3522.5 243V298.8H3411.5V660H3343.1V298.8H3231.5V243H3522.5ZM3568.97 493.2C3568.97 460 3575.77 430.6 3589.37 405C3603.37 379.4 3622.17 359.6 3645.77 345.6C3669.77 331.2 3696.17 324 3724.97 324C3750.97 324 3773.57 329.2 3792.77 339.6C3812.37 349.6 3827.97 362.2 3839.57 377.4V329.4H3908.57V660H3839.57V610.8C3827.97 626.4 3812.17 639.4 3792.17 649.8C3772.17 660.2 3749.37 665.4 3723.77 665.4C3695.37 665.4 3669.37 658.2 3645.77 643.8C3622.17 629 3603.37 608.6 3589.37 582.6C3575.77 556.2 3568.97 526.4 3568.97 493.2ZM3839.57 494.4C3839.57 471.6 3834.77 451.8 3825.17 435C3815.97 418.2 3803.77 405.4 3788.57 396.6C3773.37 387.8 3756.97 383.4 3739.37 383.4C3721.77 383.4 3705.37 387.8 3690.17 396.6C3674.97 405 3662.57 417.6 3652.97 434.4C3643.77 450.8 3639.17 470.4 3639.17 493.2C3639.17 516 3643.77 536 3652.97 553.2C3662.57 570.4 3674.97 583.6 3690.17 592.8C3705.77 601.6 3722.17 606 3739.37 606C3756.97 606 3773.37 601.6 3788.57 592.8C3803.77 584 3815.97 571.2 3825.17 554.4C3834.77 537.2 3839.57 517.2 3839.57 494.4ZM4066.81 216V660H3998.41V216H4066.81ZM4287.42 495L4439.82 660H4347.42L4225.02 517.8V660H4156.62V216H4225.02V474L4345.02 329.4H4439.82L4287.42 495ZM4608.84 665.4C4582.84 665.4 4559.44 660.8 4538.64 651.6C4518.24 642 4502.04 629.2 4490.04 613.2C4478.04 596.8 4471.64 578.6 4470.84 558.6H4541.64C4542.84 572.6 4549.44 584.4 4561.44 594C4573.84 603.2 4589.24 607.8 4607.64 607.8C4626.84 607.8 4641.64 604.2 4652.04 597C4662.84 589.4 4668.24 579.8 4668.24 568.2C4668.24 555.8 4662.24 546.6 4650.24 540.6C4638.64 534.6 4620.04 528 4594.44 520.8C4569.64 514 4549.44 507.4 4533.84 501C4518.24 494.6 4504.64 484.8 4493.04 471.6C4481.84 458.4 4476.24 441 4476.24 419.4C4476.24 401.8 4481.44 385.8 4491.84 371.4C4502.24 356.6 4517.04 345 4536.24 336.6C4555.84 328.2 4578.24 324 4603.44 324C4641.04 324 4671.24 333.6 4694.04 352.8C4717.24 371.6 4729.64 397.4 4731.24 430.2H4662.84C4661.64 415.4 4655.64 403.6 4644.84 394.8C4634.04 386 4619.44 381.6 4601.04 381.6C4583.04 381.6 4569.24 385 4559.64 391.8C4550.04 398.6 4545.24 407.6 4545.24 418.8C4545.24 427.6 4548.44 435 4554.84 441C4561.24 447 4569.04 451.8 4578.24 455.4C4587.44 458.6 4601.04 462.8 4619.04 468C4643.04 474.4 4662.64 481 4677.84 487.8C4693.44 494.2 4706.84 503.8 4718.04 516.6C4729.24 529.4 4735.04 546.4 4735.44 567.6C4735.44 586.4 4730.24 603.2 4719.84 618C4709.44 632.8 4694.64 644.4 4675.44 652.8C4656.64 661.2 4634.44 665.4 4608.84 665.4Z" fill="white"/>
</svg>
