<svg width="672" height="672" viewBox="0 0 672 672" fill="none" xmlns="http://www.w3.org/2000/svg">
<g clip-path="url(#clip0_631:14146)">
<path d="M335.895 -0.00129866C244.671 -0.00129866 233.232 0.385389 197.405 2.02006C161.653 3.65072 137.236 9.32937 115.87 17.632C93.7823 26.216 75.0505 37.7014 56.3765 56.3747C37.7031 75.0481 26.2177 93.7814 17.6339 115.869C9.33073 137.235 3.6526 161.652 2.02084 197.404C0.386459 233.231 0 244.669 0 335.893C0 427.116 0.386459 438.555 2.02084 474.381C3.6526 510.133 9.33073 534.551 17.6339 555.916C26.2177 578.004 37.7031 596.736 56.3765 615.411C75.0505 634.084 93.7823 645.569 115.87 654.153C137.236 662.456 161.653 668.135 197.405 669.765C233.232 671.4 244.671 671.787 335.895 671.787C427.117 671.787 438.556 671.4 474.383 669.765C510.135 668.135 534.552 662.456 555.917 654.153C578.005 645.569 596.737 634.084 615.412 615.411C634.085 596.736 645.571 578.004 654.155 555.916C662.457 534.551 668.136 510.133 669.767 474.381C671.401 438.555 671.788 427.116 671.788 335.893C671.788 244.669 671.401 233.231 669.767 197.404C668.136 161.652 662.457 137.235 654.155 115.869C645.571 93.7814 634.085 75.0481 615.412 56.3747C596.737 37.7014 578.005 26.216 555.917 17.632C534.552 9.32937 510.135 3.65072 474.383 2.02006C438.556 0.385389 427.117 -0.00129866 335.895 -0.00129866ZM335.895 60.5201C425.581 60.5201 436.205 60.8627 471.624 62.4787C504.373 63.972 522.159 69.4441 533.995 74.0441C549.673 80.1374 560.863 87.4161 572.616 99.1694C584.371 110.924 591.649 122.113 597.743 137.792C602.343 149.628 607.815 167.413 609.308 200.163C610.924 235.581 611.267 246.205 611.267 335.893C611.267 425.58 610.924 436.204 609.308 471.623C607.815 504.372 602.343 522.157 597.743 533.993C591.649 549.672 584.371 560.861 572.616 572.615C560.863 584.369 549.673 591.648 533.995 597.741C522.159 602.341 504.373 607.813 471.624 609.306C436.211 610.923 425.588 611.265 335.895 611.265C246.2 611.265 235.579 610.923 200.164 609.306C167.415 607.813 149.629 602.341 137.793 597.741C122.115 591.648 110.925 584.369 99.1719 572.615C87.4183 560.861 80.1385 549.672 74.0453 533.993C69.4453 522.157 63.974 504.372 62.4797 471.623C60.8636 436.204 60.5213 425.58 60.5213 335.893C60.5213 246.205 60.8636 235.581 62.4797 200.163C63.974 167.413 69.4453 149.628 74.0453 137.792C80.1385 122.113 87.4177 110.924 99.1713 99.1707C110.925 87.416 122.115 80.1374 137.793 74.0441C149.629 69.4441 167.415 63.972 200.164 62.4787C235.583 60.8627 246.207 60.5201 335.895 60.5201Z" fill="white"/>
<path d="M335.895 447.857C274.057 447.857 223.929 397.729 223.929 335.893C223.929 274.056 274.057 223.928 335.895 223.928C397.731 223.928 447.859 274.056 447.859 335.893C447.859 397.729 397.731 447.857 335.895 447.857V447.857ZM335.895 163.407C240.632 163.407 163.408 240.631 163.408 335.893C163.408 431.155 240.632 508.379 335.895 508.379C431.156 508.379 508.38 431.155 508.38 335.893C508.38 240.631 431.156 163.407 335.895 163.407Z" fill="white"/>
<path d="M555.503 156.592C555.503 178.853 537.456 196.899 515.195 196.899C492.935 196.899 474.888 178.853 474.888 156.592C474.888 134.331 492.935 116.284 515.195 116.284C537.456 116.284 555.503 134.331 555.503 156.592" fill="white"/>
</g>
<defs>
<clipPath id="clip0_631:14146">
<rect width="671.787" height="671.787" fill="white"/>
</clipPath>
</defs>
</svg>
