<svg width="128" height="128" viewBox="0 0 128 128" fill="none" xmlns="http://www.w3.org/2000/svg">
<path d="M11.8568 29H116.143C122.745 29 128 24.5681 128 19C128 13.4318 122.745 9 116.143 9H11.8568C5.25474 9 0 13.4318 0 19C0 24.5681 5.25474 29 11.8568 29Z" fill="#2F323A"/>
<path d="M116.143 54.1011H11.8568C5.25474 54.1011 0 58.5329 0 64.101C0 69.6692 5.25474 74.1011 11.8568 74.1011H116.143C122.745 74.1011 128 69.6692 128 64.101C128 58.5329 122.745 54.1011 116.143 54.1011Z" fill="#2F323A"/>
<path d="M116.143 99H11.8568C5.25474 99 0 103.432 0 109C0 114.568 5.25474 119 11.8568 119H116.143C122.745 119 128 114.568 128 109C128 103.432 122.745 99 116.143 99Z" fill="#2F323A"/>
</svg>
